<svg width="36" height="36" viewBox="0 0 36 36" fill="none" xmlns="http://www.w3.org/2000/svg">
<rect width="36" height="36" fill="#FECB0B"/>
<path d="M17.25 12.2461C18.2226 12.2461 19.0136 13.0371 19.0136 14.0098C19.0136 14.9795 18.2226 15.7705 17.25 15.7705C16.2773 15.7705 15.4863 14.9795 15.4863 14.0098C15.4863 13.0371 16.2773 12.2461 17.25 12.2461ZM17.25 18.2666C19.5996 18.2666 21.5097 16.3564 21.5097 14.0098C21.5097 11.6602 19.5996 9.75 17.25 9.75C14.9004 9.75 12.9931 11.6602 12.9931 14.0098C12.9931 16.3564 14.9004 18.2666 17.25 18.2666ZM18.9726 21.7412C19.8398 21.542 20.6748 21.1992 21.4453 20.7158C22.0283 20.3496 22.2041 19.5791 21.8379 18.9961C21.4687 18.4102 20.7011 18.2344 20.1152 18.6035C18.372 19.6992 16.1279 19.6992 14.3818 18.6035C13.7988 18.2344 13.0283 18.4102 12.6621 18.9961C12.2959 19.5791 12.4717 20.3496 13.0547 20.7158C13.8252 21.1992 14.6601 21.542 15.5273 21.7412L13.1455 24.1201C12.6592 24.6064 12.6592 25.3975 13.1455 25.8838C13.3916 26.127 13.708 26.25 14.0273 26.25C14.3467 26.25 14.666 26.127 14.9121 25.8838L17.25 23.5459L19.5908 25.8838C20.0771 26.373 20.8652 26.373 21.3545 25.8838C21.8408 25.3975 21.8408 24.6064 21.3545 24.1201L18.9726 21.7412Z" fill="#1E1E20"/>
</svg>
