<svg width="32" height="32" viewBox="0 0 32 32" fill="none" xmlns="http://www.w3.org/2000/svg">
<path d="M8.90252 15.4331C8.90252 15.4331 15.4128 12.691 17.6707 11.7255C18.5363 11.3393 21.4715 10.1034 21.4715 10.1034C21.4715 10.1034 22.8263 9.56277 22.7134 10.8758C22.6757 11.4166 22.3747 13.3089 22.0736 15.3558C21.622 18.2524 21.1328 21.4192 21.1328 21.4192C21.1328 21.4192 21.0576 22.3075 20.4178 22.462C19.7781 22.6165 18.7244 21.9214 18.5363 21.7668C18.3857 21.651 15.7139 19.913 14.7354 19.0634C14.472 18.8317 14.171 18.3683 14.773 17.8276C16.1278 16.5531 17.746 14.9696 18.7244 13.9655C19.176 13.502 19.6275 12.4207 17.746 13.7338C15.0741 15.6262 12.4399 17.4027 12.4399 17.4027C12.4399 17.4027 11.8378 17.7889 10.7088 17.4413C9.57985 17.0938 8.26274 16.6303 8.26274 16.6303C8.26274 16.6303 7.35963 16.051 8.90252 15.4331Z" fill="white"/>
</svg>
