<svg width="36" height="36" viewBox="0 0 36 36" fill="none" xmlns="http://www.w3.org/2000/svg">
<rect width="36" height="36" fill="#FECB0B"/>
<path d="M28.8814 23.601C27.9829 21.984 25.6684 20.041 24.7129 19.1955C24.4514 18.964 24.4234 18.5635 24.6614 18.3075C26.4849 16.348 27.9434 14.0965 28.4454 12.736C28.6669 12.135 28.2084 11.5 27.5624 11.5H25.6859C25.0674 11.5 24.7054 11.722 24.5329 12.0755C23.0174 15.181 21.7174 16.525 20.8074 17.3105C20.2979 17.7505 19.5034 17.386 19.5034 16.7165C19.5034 15.4265 19.5034 13.759 19.5034 12.5765C19.5034 12.003 19.0344 11.539 18.4559 11.539L15.0279 11.5C14.5964 11.5 14.3499 11.9885 14.6089 12.331L15.1749 13.1435C15.3879 13.425 15.5029 13.7675 15.5029 14.119L15.4999 17.778C15.4999 18.4145 14.7284 18.7255 14.2704 18.2795C12.7209 16.7705 11.3764 13.689 10.8924 12.2155C10.7524 11.789 10.3529 11.501 9.89994 11.5L8.05144 11.4955C7.35794 11.4955 6.85094 12.153 7.03944 12.815C8.72844 18.7435 12.1939 24.3835 18.3699 24.995C18.9784 25.055 19.5034 24.565 19.5034 23.9585V22.0355C19.5034 21.484 19.9359 21.01 20.4919 20.996C20.5114 20.9955 20.5309 20.9955 20.5504 20.9955C22.1839 20.9955 24.0134 23.373 24.6534 24.485C24.8374 24.805 25.1814 25 25.5534 25H28.0399C28.7654 25 29.2309 24.2305 28.8814 23.601Z" fill="#1E1E20"/>
</svg>
