<svg width="32" height="32" viewBox="0 0 32 32" fill="none" xmlns="http://www.w3.org/2000/svg">
<path d="M8.00006 23.4078L9.14802 19.1394C8.22222 17.4766 7.92808 15.5363 8.31959 13.6745C8.71109 11.8127 9.76198 10.1543 11.2794 9.00364C12.7968 7.85295 14.679 7.28716 16.5806 7.41009C18.4821 7.53301 20.2755 8.33642 21.6316 9.67287C22.9877 11.0093 23.8156 12.7892 23.9633 14.6858C24.111 16.5825 23.5687 18.4687 22.4358 19.9984C21.303 21.5281 19.6555 22.5986 17.7959 23.0135C15.9362 23.4284 13.9891 23.1599 12.3117 22.2572L8.00006 23.4078ZM12.5196 20.6599L12.7863 20.8179C14.0012 21.5368 15.4202 21.8343 16.8222 21.664C18.2242 21.4937 19.5304 20.8652 20.5373 19.8764C21.5441 18.8877 22.195 17.5941 22.3886 16.1975C22.5822 14.8008 22.3076 13.3794 21.6075 12.1548C20.9075 10.9302 19.8213 9.97122 18.5183 9.42726C17.2153 8.88329 15.7687 8.78492 14.4038 9.14747C13.039 9.51002 11.8326 10.3131 10.9727 11.4316C10.1128 12.5501 9.6476 13.9212 9.64969 15.3312C9.64855 16.5003 9.97242 17.6468 10.5852 18.6431L10.7525 18.9183L10.1107 21.3006L12.5196 20.6599Z" fill="white"/>
<path fill-rule="evenodd" clip-rule="evenodd" d="M18.9915 16.4273C18.8352 16.3014 18.6521 16.2128 18.4563 16.1683C18.2605 16.1237 18.0571 16.1243 17.8616 16.1701C17.5678 16.2919 17.378 16.7522 17.1882 16.9823C17.1481 17.0374 17.0893 17.0761 17.0228 17.0911C16.9562 17.106 16.8864 17.0962 16.8266 17.0635C15.7511 16.6429 14.8496 15.8717 14.2685 14.8751C14.219 14.813 14.1955 14.734 14.2031 14.6549C14.2107 14.5758 14.2487 14.5027 14.3092 14.451C14.5209 14.2418 14.6764 13.9826 14.7612 13.6975C14.78 13.383 14.7078 13.0698 14.5533 12.7951C14.4338 12.41 14.2064 12.0671 13.8979 11.8069C13.7389 11.7355 13.5625 11.7116 13.39 11.738C13.2176 11.7644 13.0566 11.8401 12.9262 11.9558C12.7 12.1507 12.5205 12.3937 12.4008 12.667C12.2811 12.9403 12.2244 13.237 12.2348 13.5351C12.2355 13.7025 12.2567 13.8692 12.298 14.0314C12.403 14.4212 12.5644 14.7936 12.7771 15.1368C12.9306 15.3998 13.098 15.6543 13.2788 15.8994C13.8661 16.7043 14.6044 17.3878 15.4527 17.9118C15.8783 18.178 16.3333 18.3945 16.8085 18.557C17.3022 18.7804 17.8473 18.8661 18.3859 18.8051C18.6927 18.7588 18.9835 18.6378 19.2325 18.4529C19.4815 18.268 19.6812 18.0249 19.814 17.7448C19.892 17.5756 19.9157 17.3865 19.8818 17.2034C19.8005 16.8289 19.2988 16.6078 18.9915 16.4273Z" fill="white"/>
</svg>
